<?xml version="1.0" encoding="utf-8"?>
<!-- Generator: Adobe Illustrator 22.1.0, SVG Export Plug-In . SVG Version: 6.00 Build 0)  -->
<svg version="1.1" id="Laag_1" xmlns="http://www.w3.org/2000/svg" xmlns:xlink="http://www.w3.org/1999/xlink" x="0px" y="0px"
	 viewBox="0 0 368.6 65.3" style="enable-background:new 0 0 368.6 65.3;" xml:space="preserve">
<style type="text/css">
	.st0{fill:#BDD7CC;}
</style>
<rect x="6" y="5.4" width="358.8" height="55.1"/>
<g>
	<g>
		<g>
			<path class="st0" d="M194.5,33.6c0,0.4-0.1,0.8-0.3,1.1c-0.2,0.3-0.4,0.6-0.7,0.8c-0.3,0.2-0.6,0.4-1,0.5
				c-0.4,0.1-0.8,0.2-1.2,0.2c-0.5,0-0.9-0.1-1.3-0.4c-0.4-0.2-0.6-0.6-0.6-1.1c0-0.5,0.2-0.8,0.5-1.1c0.3-0.3,0.7-0.5,1.1-0.6
				c0.4-0.1,0.9-0.2,1.4-0.2c0.5,0,0.9,0,1.2,0h1V33.6z M198.4,38.7v-6.9c0-1.1-0.1-2.1-0.3-3c-0.2-0.9-0.5-1.6-1-2.2
				c-0.5-0.6-1.1-1-1.9-1.4c-0.8-0.3-1.8-0.5-3-0.5c-1.1,0-2.2,0.2-3.2,0.5c-0.2,0.1-0.4,0.2-0.6,0.3l1,2.8c0.2-0.1,0.4-0.3,0.6-0.4
				c0.6-0.3,1.2-0.4,1.9-0.4c0.7,0,1.4,0.2,1.9,0.7c0.5,0.4,0.8,1,0.8,1.8c-0.6,0-1.2,0-1.9,0c-0.7,0-1.4,0.1-2,0.2
				c-0.7,0.1-1.3,0.2-2,0.4c-0.6,0.2-1.2,0.5-1.7,0.8c-0.5,0.4-0.9,0.8-1.2,1.3c-0.3,0.5-0.4,1.2-0.4,2c0,0.7,0.1,1.3,0.4,1.8
				c0.3,0.5,0.6,1,1.1,1.3c0.4,0.4,1,0.6,1.6,0.8c0.6,0.2,1.2,0.3,1.8,0.3c0.9,0,1.7-0.2,2.4-0.5c0.8-0.3,1.4-0.8,1.9-1.6h0.1v1.7
				H198.4z"/>
			<path class="st0" d="M327.1,38.7h4.2v-6.8c0-0.4,0-0.9,0.1-1.3c0.1-0.4,0.2-0.8,0.3-1.1c0.2-0.3,0.4-0.6,0.8-0.8
				c0.3-0.2,0.8-0.3,1.3-0.3c0.5,0,0.9,0.1,1.1,0.3c0.3,0.2,0.4,0.5,0.5,0.8c0.1,0.3,0.2,0.7,0.2,1s0,0.7,0,0.9v7.2h4.2v-7.2
				c0-0.4,0-0.8,0.1-1.2c0.1-0.4,0.2-0.7,0.4-1c0.2-0.3,0.5-0.5,0.8-0.7c0.3-0.2,0.7-0.2,1.2-0.2c0.7,0,1.2,0.2,1.4,0.7
				c0.3,0.5,0.4,1,0.4,1.6v7.9h4.2v-8c0-0.8-0.1-1.6-0.2-2.3c-0.2-0.7-0.4-1.3-0.8-1.9c-0.4-0.5-0.9-1-1.5-1.3
				c-0.6-0.3-1.4-0.5-2.3-0.5c-1,0-1.9,0.2-2.5,0.6c-0.7,0.4-1.3,1-1.8,1.9c-0.4-0.8-0.9-1.5-1.7-1.8c-0.7-0.4-1.6-0.6-2.5-0.6
				c-0.5,0-1,0.1-1.4,0.2c-0.4,0.1-0.8,0.3-1.1,0.5c-0.3,0.2-0.6,0.4-0.9,0.7c-0.2,0.3-0.4,0.5-0.6,0.8h-0.1v-1.8h-4V38.7z
				 M318.4,32.7v0.9c0,0.4-0.1,0.8-0.3,1.1c-0.2,0.3-0.4,0.6-0.7,0.8c-0.3,0.2-0.6,0.4-1,0.5c-0.4,0.1-0.8,0.2-1.2,0.2
				c-0.5,0-0.9-0.1-1.3-0.4c-0.4-0.2-0.6-0.6-0.6-1.1c0-0.5,0.2-0.8,0.5-1.1c0.3-0.3,0.7-0.5,1.1-0.6c0.4-0.1,0.9-0.2,1.4-0.2
				c0.5,0,0.9,0,1.2,0H318.4z M318.4,38.7h3.9v-6.9c0-1.1-0.1-2.1-0.3-3c-0.2-0.9-0.5-1.6-1-2.2c-0.5-0.6-1.1-1-1.9-1.4
				c-0.8-0.3-1.8-0.5-3-0.5c-1.1,0-2.2,0.2-3.2,0.5c-1,0.4-2,0.9-2.7,1.6l2.2,2.3c0.4-0.5,1-0.9,1.5-1.2c0.6-0.3,1.2-0.4,1.9-0.4
				c0.7,0,1.4,0.2,1.9,0.7c0.5,0.4,0.8,1,0.8,1.8c-0.6,0-1.2,0-1.9,0c-0.7,0-1.4,0.1-2,0.2c-0.7,0.1-1.3,0.2-2,0.4
				c-0.6,0.2-1.2,0.5-1.7,0.8c-0.5,0.4-0.9,0.8-1.2,1.3c-0.3,0.5-0.4,1.2-0.4,2c0,0.7,0.1,1.3,0.4,1.8c0.3,0.5,0.6,1,1.1,1.3
				c0.4,0.4,1,0.6,1.6,0.8c0.6,0.2,1.2,0.3,1.8,0.3c0.9,0,1.7-0.2,2.4-0.5c0.8-0.3,1.4-0.8,1.9-1.6h0.1V38.7z M299.5,34.4
				c-0.6,0.6-1.4,1-2.5,1c-1.1,0-1.9-0.3-2.5-1c-0.6-0.6-0.9-1.5-0.9-2.5c0-1,0.3-1.9,0.9-2.5c0.6-0.6,1.4-1,2.5-1
				c1.1,0,1.9,0.3,2.5,1c0.6,0.6,0.9,1.5,0.9,2.5C300.4,32.9,300.1,33.7,299.5,34.4 M304.3,17.5h-4.2v9H300
				c-0.5-0.7-1.1-1.1-1.9-1.4c-0.8-0.3-1.6-0.4-2.4-0.4c-1,0-1.8,0.2-2.6,0.6c-0.8,0.4-1.4,0.9-1.9,1.6c-0.5,0.7-0.9,1.4-1.2,2.3
				c-0.3,0.9-0.4,1.8-0.4,2.7c0,1,0.2,2,0.5,2.8c0.3,0.9,0.8,1.6,1.4,2.2c0.6,0.6,1.3,1.1,2.1,1.5c0.8,0.3,1.7,0.5,2.7,0.5
				c0.5,0,0.9-0.1,1.4-0.2c0.4-0.1,0.8-0.3,1.2-0.5c0.4-0.2,0.7-0.4,1-0.7c0.3-0.3,0.5-0.5,0.7-0.7h0.1v1.8h3.9V17.5z M276.9,38.7
				h4.2V33c0-0.7,0-1.3,0.1-1.8c0.1-0.6,0.2-1,0.5-1.4c0.3-0.4,0.6-0.7,1.1-0.9c0.5-0.2,1.1-0.3,1.9-0.3c0.3,0,0.6,0,0.9,0.1
				c0.3,0,0.6,0.1,0.9,0.2v-3.8c-0.2-0.1-0.4-0.1-0.7-0.1c-0.2,0-0.5,0-0.7,0c-0.9,0-1.7,0.2-2.3,0.6c-0.6,0.4-1.1,1-1.6,1.9h-0.1
				v-2.2h-4.2V38.7z M262.4,30.3c0-0.3,0.1-0.7,0.2-1c0.1-0.3,0.3-0.6,0.6-0.8c0.3-0.2,0.6-0.4,0.9-0.6c0.4-0.1,0.8-0.2,1.2-0.2
				c0.8,0,1.4,0.3,1.9,0.8c0.5,0.5,0.7,1.1,0.7,1.8H262.4z M268.6,34.2c-0.4,0.5-0.8,0.9-1.2,1.2c-0.5,0.3-1.1,0.5-1.7,0.5
				c-0.8,0-1.5-0.2-2.1-0.7c-0.6-0.5-0.9-1.1-1.1-1.9h9.7v-1.3c0-1.1-0.1-2.1-0.4-2.9c-0.3-0.9-0.7-1.6-1.3-2.3
				c-0.6-0.6-1.2-1.1-2-1.4c-0.8-0.3-1.7-0.5-2.6-0.5c-1,0-2,0.2-2.9,0.5c-0.9,0.3-1.7,0.8-2.4,1.4c-0.7,0.6-1.2,1.4-1.6,2.3
				c-0.4,0.9-0.6,1.9-0.6,2.9c0,1.1,0.2,2.1,0.6,2.9c0.4,0.9,0.9,1.6,1.6,2.3s1.5,1.1,2.4,1.4c0.9,0.3,1.9,0.5,2.9,0.5
				c1.1,0,2.2-0.2,3.2-0.7c1-0.5,1.9-1.1,2.5-2L268.6,34.2z M254.3,25.1h-3.7v-4h-4.2v4h-2.7v3.4h2.7v6.5c0,0.7,0.1,1.4,0.4,1.9
				c0.3,0.5,0.6,0.9,1,1.3c0.4,0.3,1,0.6,1.6,0.7c0.6,0.1,1.2,0.2,2,0.2c0.5,0,1,0,1.5-0.1c0.5-0.1,1-0.2,1.5-0.3v-3.5
				c-0.2,0.2-0.5,0.3-0.8,0.3c-0.4,0-0.7,0.1-0.9,0.1c-0.4,0-0.8-0.1-1.1-0.2c-0.3-0.1-0.5-0.3-0.6-0.5c-0.1-0.2-0.2-0.5-0.3-0.8
				c0-0.3-0.1-0.6-0.1-1v-4.5h3.7V25.1z M240.1,26.5c-0.6-0.7-1.4-1.1-2.3-1.4c-0.9-0.3-1.8-0.4-2.7-0.4c-0.7,0-1.4,0.1-2.1,0.3
				c-0.7,0.2-1.3,0.5-1.8,0.8c-0.5,0.4-1,0.8-1.3,1.4c-0.3,0.6-0.5,1.3-0.5,2.1c0,0.9,0.2,1.5,0.5,2.1c0.3,0.5,0.8,0.9,1.3,1.2
				s1.1,0.5,1.7,0.6c0.6,0.1,1.2,0.3,1.7,0.4c0.5,0.1,1,0.3,1.3,0.4c0.3,0.2,0.5,0.4,0.5,0.8c0,0.4-0.2,0.6-0.6,0.8
				s-0.8,0.2-1.3,0.2c-0.6,0-1.2-0.1-1.7-0.4c-0.5-0.3-0.9-0.6-1.3-1.1l-2.5,2.8c0.7,0.7,1.5,1.2,2.5,1.4c1,0.3,1.9,0.4,2.9,0.4
				c0.7,0,1.5-0.1,2.2-0.2c0.7-0.1,1.4-0.4,2-0.7s1.1-0.8,1.5-1.4c0.4-0.6,0.6-1.3,0.6-2.2c0-0.9-0.2-1.5-0.5-2.1
				c-0.3-0.5-0.8-0.9-1.3-1.2c-0.5-0.3-1.1-0.5-1.7-0.7c-0.6-0.1-1.2-0.3-1.7-0.4c-0.5-0.1-1-0.3-1.3-0.4c-0.3-0.2-0.5-0.4-0.5-0.7
				c0-0.4,0.2-0.7,0.5-0.9c0.3-0.2,0.7-0.3,1-0.3c1,0,1.8,0.4,2.4,1.1L240.1,26.5z M203.3,38.7h4.2v-6.8c0-0.4,0-0.9,0.1-1.3
				c0.1-0.4,0.2-0.8,0.3-1.1c0.2-0.3,0.4-0.6,0.8-0.8c0.3-0.2,0.8-0.3,1.3-0.3c0.5,0,0.9,0.1,1.1,0.3c0.3,0.2,0.4,0.5,0.5,0.8
				c0.1,0.3,0.2,0.7,0.2,1c0,0.4,0,0.7,0,0.9v7.2h4.2v-7.2c0-0.4,0-0.8,0.1-1.2c0.1-0.4,0.2-0.7,0.4-1c0.2-0.3,0.5-0.5,0.8-0.7
				c0.3-0.2,0.7-0.2,1.2-0.2c0.7,0,1.2,0.2,1.4,0.7c0.3,0.5,0.4,1,0.4,1.6v7.9h4.2v-8c0-0.8-0.1-1.6-0.2-2.3
				c-0.2-0.7-0.4-1.3-0.8-1.9c-0.4-0.5-0.9-1-1.5-1.3c-0.6-0.3-1.4-0.5-2.3-0.5c-1,0-1.9,0.2-2.5,0.6c-0.7,0.4-1.3,1-1.8,1.9
				c-0.4-0.8-0.9-1.5-1.7-1.8c-0.7-0.4-1.6-0.6-2.5-0.6c-0.5,0-1,0.1-1.4,0.2c-0.4,0.1-0.8,0.3-1.1,0.5c-0.3,0.2-0.6,0.4-0.9,0.7
				c-0.2,0.3-0.4,0.5-0.6,0.8h-0.1v-1.8h-4V38.7z"/>
		</g>
		<g>
			<path class="st0" d="M49.9,28.5c-0.4-0.5-1-0.9-1.6-1.1c-0.6-0.3-1.3-0.4-2.1-0.4c-0.8,0-1.5,0.1-2.1,0.4
				c-0.6,0.3-1.2,0.7-1.6,1.1c-0.4,0.5-0.8,1-1,1.7c-0.2,0.6-0.3,1.3-0.3,2.1c0,0.7,0.1,1.4,0.3,2.1c0.2,0.6,0.6,1.2,1,1.7
				c0.4,0.5,1,0.9,1.6,1.1c0.6,0.3,1.3,0.4,2.1,0.4c0.8,0,1.5-0.1,2.1-0.4c0.6-0.3,1.2-0.7,1.6-1.1c0.4-0.5,0.8-1,1-1.7
				c0.2-0.6,0.3-1.3,0.3-2.1c0-0.7-0.1-1.4-0.3-2.1C50.7,29.5,50.4,28.9,49.9,28.5z"/>
			<path class="st0" d="M90.3,28.2c-0.4-0.4-0.9-0.7-1.4-0.9c-0.6-0.2-1.1-0.3-1.7-0.3c-0.9,0-1.7,0.2-2.3,0.6
				c-0.6,0.4-1.1,0.8-1.4,1.3c-0.4,0.5-0.6,1-0.8,1.4c-0.1,0.5-0.2,0.8-0.2,0.9h9.2c0-0.6-0.1-1.1-0.3-1.6
				C91,29,90.7,28.5,90.3,28.2z"/>
			<path class="st0" d="M108.9,28.2c-0.4-0.4-0.9-0.7-1.4-0.9c-0.6-0.2-1.1-0.3-1.7-0.3c-0.9,0-1.7,0.2-2.3,0.6
				c-0.6,0.4-1.1,0.8-1.4,1.3c-0.4,0.5-0.6,1-0.8,1.4c-0.1,0.5-0.2,0.8-0.2,0.9h9.2c0-0.6-0.1-1.1-0.3-1.6
				C109.6,29,109.3,28.5,108.9,28.2z"/>
			<path class="st0" d="M182.6,28.5c-0.4-0.5-1-0.9-1.6-1.1c-0.6-0.3-1.3-0.4-2.1-0.4c-0.8,0-1.5,0.1-2.1,0.4
				c-0.7,0.3-1.2,0.7-1.7,1.1c-0.5,0.5-0.9,1-1.1,1.7c-0.3,0.6-0.4,1.3-0.4,2.1c0,0.7,0.1,1.4,0.4,2.1c0.3,0.6,0.7,1.2,1.1,1.7
				c0.5,0.5,1.1,0.9,1.7,1.1c0.7,0.3,1.4,0.4,2.1,0.4c0.8,0,1.5-0.1,2.1-0.4c0.6-0.3,1.2-0.7,1.6-1.1c0.4-0.5,0.8-1,1-1.7
				c0.2-0.6,0.3-1.3,0.3-2.1c0-0.7-0.1-1.4-0.3-2.1C183.3,29.5,183,28.9,182.6,28.5z"/>
			<path class="st0" d="M183.7,37.1c-0.6,0.6-1.3,1.1-2.2,1.4c-0.8,0.3-1.7,0.5-2.7,0.5c-0.5,0-1-0.1-1.5-0.2
				c-0.5-0.1-1-0.3-1.4-0.5c-0.5-0.2-0.9-0.5-1.3-0.8c-0.4-0.3-0.7-0.7-1-1.2h-0.1V45h-1.7V25.7h1.7V28h0.1c0.3-0.4,0.6-0.8,1-1.2
				c0.4-0.3,0.8-0.6,1.3-0.8c0.5-0.2,0.9-0.4,1.4-0.5c0.5-0.1,1-0.2,1.5-0.2c1,0,1.9,0.2,2.7,0.5c0.8,0.3,1.5,0.8,2.2,1.4
				c0.5,0.5,0.8,1,1.1,1.6v-24H5.5v56h179.4V35.4C184.5,36,184.2,36.6,183.7,37.1z M24.6,34.3c0.2,0.6,0.6,1.2,1,1.7
				c0.4,0.5,1,0.9,1.6,1.1c0.6,0.3,1.3,0.4,2.1,0.4c0.7,0,1.4-0.2,1.9-0.5c0.6-0.3,1.1-0.8,1.5-1.3l1.3,1.1
				c-0.6,0.8-1.4,1.3-2.2,1.7c-0.8,0.4-1.7,0.5-2.6,0.5c-1,0-1.9-0.2-2.7-0.5c-0.8-0.3-1.6-0.8-2.2-1.4c-0.6-0.6-1.1-1.3-1.4-2.2
				c-0.3-0.8-0.5-1.7-0.5-2.7c0-1,0.2-1.9,0.5-2.7c0.3-0.8,0.8-1.5,1.4-2.2c0.6-0.6,1.3-1.1,2.2-1.4c0.8-0.3,1.8-0.5,2.7-0.5
				c1,0,1.8,0.2,2.6,0.6c0.8,0.4,1.5,0.9,2.2,1.7l-1.3,1c-0.5-0.5-1-1-1.6-1.3c-0.6-0.3-1.2-0.5-1.9-0.5c-0.8,0-1.5,0.1-2.1,0.4
				c-0.6,0.3-1.2,0.7-1.6,1.1c-0.4,0.5-0.8,1-1,1.7c-0.2,0.6-0.3,1.3-0.3,2.1C24.3,32.9,24.4,33.6,24.6,34.3z M52.5,34.9
				c-0.3,0.8-0.8,1.5-1.4,2.2c-0.6,0.6-1.3,1.1-2.2,1.4c-0.8,0.3-1.7,0.5-2.7,0.5c-1,0-1.9-0.2-2.7-0.5c-0.8-0.3-1.6-0.8-2.2-1.4
				c-0.6-0.6-1.1-1.3-1.4-2.2c-0.3-0.8-0.5-1.7-0.5-2.7c0-1,0.2-1.9,0.5-2.7c0.3-0.8,0.8-1.5,1.4-2.2c0.6-0.6,1.3-1.1,2.2-1.4
				c0.8-0.3,1.8-0.5,2.7-0.5c1,0,1.9,0.2,2.7,0.5c0.8,0.3,1.5,0.8,2.2,1.4c0.6,0.6,1.1,1.3,1.4,2.2c0.3,0.8,0.5,1.7,0.5,2.7
				C53,33.2,52.8,34.1,52.5,34.9z M65.4,19c-0.4-0.2-0.9-0.3-1.5-0.3c-1.5,0-2.3,1.1-2.3,3.4v3.6h3v1.5h-3v11.4h-1.7V27.3h-2.7v-1.5
				h2.7v-4.2c0-0.8,0.1-1.5,0.4-2.1c0.3-0.6,0.6-1,0.9-1.3c0.4-0.3,0.8-0.6,1.2-0.7c0.5-0.1,0.9-0.2,1.3-0.2c0.8,0,1.4,0.1,1.9,0.3
				L65.4,19z M77.1,19c-0.4-0.2-0.9-0.3-1.5-0.3c-1.5,0-2.3,1.1-2.3,3.4v3.6h3v1.5h-3v11.4h-1.7V27.3h-2.7v-1.5h2.7v-4.2
				c0-0.8,0.1-1.5,0.4-2.1c0.3-0.6,0.6-1,0.9-1.3c0.4-0.3,0.8-0.6,1.2-0.7c0.5-0.1,0.9-0.2,1.3-0.2c0.8,0,1.4,0.1,1.9,0.3L77.1,19z
				 M93.2,32.6H82.4c0,0.4,0.1,0.8,0.2,1.4c0.1,0.6,0.4,1.1,0.8,1.6c0.4,0.5,0.9,1,1.5,1.3c0.6,0.4,1.4,0.6,2.4,0.6
				c0.9,0,1.7-0.2,2.5-0.6c0.8-0.4,1.4-1,1.8-1.7l1.2,1c-0.7,1-1.5,1.7-2.4,2.1c-1,0.4-2,0.6-3.2,0.6c-1,0-1.9-0.2-2.7-0.5
				c-0.8-0.3-1.5-0.8-2.1-1.4c-0.6-0.6-1-1.3-1.3-2.2c-0.3-0.8-0.5-1.7-0.5-2.8c0-1,0.2-1.9,0.5-2.7c0.3-0.8,0.8-1.5,1.3-2.1
				c0.6-0.6,1.3-1.1,2-1.4c0.8-0.3,1.6-0.5,2.6-0.5c1,0,1.9,0.2,2.6,0.5c0.8,0.3,1.4,0.8,1.9,1.4c0.5,0.6,0.9,1.2,1.2,1.9
				c0.3,0.7,0.4,1.5,0.4,2.2V32.6z M111.9,32.6H101c0,0.4,0.1,0.8,0.2,1.4c0.1,0.6,0.4,1.1,0.8,1.6c0.4,0.5,0.9,1,1.5,1.3
				c0.6,0.4,1.4,0.6,2.4,0.6c0.9,0,1.7-0.2,2.5-0.6s1.4-1,1.8-1.7l1.2,1c-0.7,1-1.5,1.7-2.4,2.1c-1,0.4-2,0.6-3.2,0.6
				c-1,0-1.9-0.2-2.7-0.5c-0.8-0.3-1.5-0.8-2.1-1.4c-0.6-0.6-1-1.3-1.3-2.2c-0.3-0.8-0.5-1.7-0.5-2.8c0-1,0.2-1.9,0.5-2.7
				c0.3-0.8,0.8-1.5,1.3-2.1c0.6-0.6,1.3-1.1,2-1.4c0.8-0.3,1.7-0.5,2.6-0.5c1,0,1.9,0.2,2.6,0.5c0.8,0.3,1.4,0.8,1.9,1.4
				c0.5,0.6,0.9,1.2,1.2,1.9s0.4,1.5,0.4,2.2V32.6z M127.3,36.7c-0.3,0.5-0.6,0.9-1,1.2c-0.4,0.3-0.9,0.6-1.5,0.8
				c-0.6,0.2-1.1,0.3-1.8,0.3c-1.1,0-2.1-0.2-3.1-0.6c-0.9-0.4-1.6-1.1-2.1-2l1.5-1c0.4,0.7,0.9,1.2,1.6,1.6
				c0.7,0.4,1.4,0.5,2.2,0.5c0.4,0,0.7-0.1,1.1-0.2c0.4-0.1,0.7-0.3,1-0.5c0.3-0.2,0.5-0.5,0.7-0.7c0.2-0.3,0.3-0.6,0.3-1
				c0-0.6-0.2-1-0.6-1.3c-0.4-0.3-0.9-0.5-1.4-0.7c-0.6-0.2-1.2-0.3-1.8-0.4c-0.7-0.1-1.3-0.3-1.8-0.6c-0.6-0.3-1-0.6-1.4-1
				c-0.4-0.4-0.6-1.1-0.6-1.9c0-0.6,0.1-1.2,0.4-1.6c0.3-0.5,0.6-0.9,1-1.2c0.4-0.3,0.9-0.5,1.4-0.7c0.5-0.1,1.1-0.2,1.6-0.2
				c1.1,0,2,0.2,2.8,0.6c0.8,0.4,1.4,1,1.8,1.8l-1.5,0.9c-0.3-0.6-0.7-1-1.2-1.4c-0.5-0.3-1.1-0.5-1.9-0.5c-0.3,0-0.6,0-0.9,0.1
				c-0.3,0.1-0.6,0.2-0.9,0.4c-0.3,0.2-0.5,0.4-0.7,0.6c-0.2,0.3-0.3,0.6-0.3,0.9c0,0.6,0.2,1,0.6,1.3c0.4,0.3,0.9,0.5,1.4,0.7
				c0.6,0.2,1.2,0.3,1.8,0.4c0.7,0.1,1.3,0.3,1.8,0.5c0.6,0.3,1,0.6,1.4,1.1c0.4,0.5,0.6,1.2,0.6,2
				C127.7,35.7,127.5,36.3,127.3,36.7z M145.6,38.7h-1.7v-7.6c0-0.5,0-1-0.1-1.5c-0.1-0.5-0.3-0.9-0.5-1.3c-0.2-0.4-0.6-0.7-1-0.9
				c-0.4-0.2-1-0.3-1.6-0.3c-0.6,0-1.2,0.1-1.7,0.3c-0.6,0.2-1,0.5-1.4,1c-0.4,0.4-0.7,1-1,1.6c-0.2,0.7-0.3,1.4-0.3,2.3v6.5h-1.7
				V17.5h1.7V28h0.1c0.3-0.7,0.9-1.3,1.7-1.8c0.8-0.5,1.7-0.8,2.7-0.8c1,0,1.8,0.2,2.5,0.5c0.6,0.3,1.1,0.7,1.5,1.2
				c0.4,0.5,0.6,1.1,0.8,1.8c0.1,0.7,0.2,1.4,0.2,2.1V38.7z M164.9,34.9c-0.3,0.8-0.8,1.5-1.4,2.2c-0.6,0.6-1.3,1.1-2.2,1.4
				c-0.8,0.3-1.7,0.5-2.7,0.5c-1,0-1.9-0.2-2.7-0.5c-0.8-0.3-1.6-0.8-2.2-1.4c-0.6-0.6-1.1-1.3-1.4-2.2c-0.3-0.8-0.5-1.7-0.5-2.7
				c0-1,0.2-1.9,0.5-2.7c0.3-0.8,0.8-1.5,1.4-2.2c0.6-0.6,1.3-1.1,2.2-1.4c0.8-0.3,1.8-0.5,2.7-0.5c1,0,1.9,0.2,2.7,0.5
				c0.8,0.3,1.5,0.8,2.2,1.4c0.6,0.6,1.1,1.3,1.4,2.2c0.3,0.8,0.5,1.7,0.5,2.7C165.4,33.2,165.3,34.1,164.9,34.9z"/>
			<path class="st0" d="M162.4,28.5c-0.4-0.5-1-0.9-1.6-1.1c-0.6-0.3-1.3-0.4-2.1-0.4c-0.8,0-1.5,0.1-2.1,0.4
				c-0.6,0.3-1.2,0.7-1.6,1.1c-0.4,0.5-0.8,1-1,1.7c-0.2,0.6-0.3,1.3-0.3,2.1c0,0.7,0.1,1.4,0.3,2.1c0.2,0.6,0.6,1.2,1,1.7
				c0.4,0.5,1,0.9,1.6,1.1c0.6,0.3,1.3,0.4,2.1,0.4c0.8,0,1.5-0.1,2.1-0.4c0.6-0.3,1.2-0.7,1.6-1.1c0.4-0.5,0.8-1,1-1.7
				c0.2-0.6,0.3-1.3,0.3-2.1c0-0.7-0.1-1.4-0.3-2.1C163.2,29.5,162.8,28.9,162.4,28.5z"/>
		</g>
		<path class="st0" d="M184.7,4.9v23.8c0.1,0.2,0.3,0.5,0.4,0.7c0.2,0.4,0.3,0.8,0.4,1.3V5.7h178.9v54.5H185.5V33.7
			c-0.1,0.4-0.2,0.9-0.4,1.3c-0.1,0.3-0.2,0.5-0.4,0.7v25.2h180.4v-56H184.7z"/>
	</g>
</g>
</svg>
