<?xml version="1.0" encoding="UTF-8" ?>
<!DOCTYPE svg PUBLIC "-//W3C//DTD SVG 1.1//EN" "http://www.w3.org/Graphics/SVG/1.1/DTD/svg11.dtd">
<svg width="258pt" height="258pt" viewBox="0 0 258 258" version="1.1" xmlns="http://www.w3.org/2000/svg">
<g id="#ffffffff">
<path fill="#ffffff" opacity="1.00" d=" M 109.84 7.87 C 122.84 5.62 136.29 5.88 149.16 8.86 C 150.46 9.24 151.77 9.53 153.09 9.84 C 157.57 11.22 161.99 12.77 166.28 14.67 C 185.74 23.50 202.14 38.99 211.80 58.08 C 213.80 61.93 215.46 65.95 216.95 70.02 C 217.36 71.29 217.75 72.58 218.19 73.84 C 218.47 74.87 218.77 75.91 219.08 76.93 C 223.54 94.23 223.29 112.78 217.83 129.82 C 217.52 130.84 217.20 131.87 216.87 132.89 C 207.26 160.69 184.02 183.25 155.92 191.98 C 154.65 192.38 153.38 192.77 152.12 193.20 C 150.76 193.47 149.40 193.75 148.07 194.12 C 146.42 194.44 144.76 194.72 143.12 195.10 C 130.80 197.11 118.16 196.67 105.95 194.11 C 86.70 189.58 68.80 179.13 55.81 164.17 C 45.90 152.99 38.73 139.39 35.06 124.91 C 34.05 121.35 33.67 117.67 32.87 114.08 C 31.99 105.41 32.04 96.66 32.92 88.00 C 33.40 86.05 33.67 84.06 34.15 82.12 C 35.15 75.82 37.41 69.80 39.73 63.89 C 41.65 59.57 43.83 55.36 46.28 51.32 C 56.13 35.36 70.81 22.58 87.83 14.74 C 93.38 12.34 99.10 10.40 104.93 8.81 C 106.58 8.56 108.23 8.33 109.84 7.87 M 115.07 9.12 C 97.79 11.33 81.17 18.59 67.82 29.78 C 48.60 45.49 36.26 69.27 34.42 94.00 C 34.30 101.37 33.91 108.83 35.30 116.11 C 38.91 139.17 51.68 160.62 70.17 174.85 C 83.97 185.42 100.77 192.63 118.20 193.76 L 118.86 194.29 C 124.64 194.26 130.48 194.79 136.23 193.90 C 153.75 192.33 170.71 185.42 184.52 174.55 C 202.60 160.49 215.13 139.51 218.88 116.91 C 222.83 94.90 218.00 71.74 206.51 52.64 L 206.69 52.30 C 206.47 52.17 206.02 51.91 205.79 51.78 C 199.63 41.77 191.29 33.20 181.91 26.18 C 162.88 12.21 138.46 5.96 115.07 9.12 Z" />
<path fill="#ffffff" opacity="1.00" d=" M 185.85 55.79 C 190.63 54.74 195.45 53.69 200.36 53.40 C 198.02 55.16 195.42 56.52 192.78 57.75 C 190.06 59.25 187.39 60.84 184.58 62.14 C 184.99 60.02 185.42 57.91 185.85 55.79 Z" />
<path fill="#ffffff" opacity="1.00" d=" M 115.20 63.62 C 116.49 63.10 117.80 62.61 119.14 62.21 C 119.42 62.88 119.97 64.22 120.25 64.89 C 120.29 65.67 120.32 66.45 120.36 67.23 C 119.61 70.07 117.27 71.71 114.63 72.64 C 114.95 69.64 115.43 66.64 115.20 63.62 Z" />
<path fill="#ffffff" opacity="1.00" d=" M 89.40 69.28 C 89.43 68.64 89.49 67.37 89.53 66.73 C 91.84 66.57 94.16 66.37 96.47 66.18 C 96.69 69.84 94.82 73.28 91.93 75.43 C 89.90 76.15 88.62 74.42 87.32 73.21 C 88.02 71.91 88.71 70.59 89.40 69.28 Z" />
<path fill="#ffffff" opacity="1.00" d=" M 77.87 71.74 C 78.24 71.71 78.97 71.63 79.34 71.59 C 81.24 72.71 83.76 73.96 83.53 76.58 C 80.66 76.36 78.37 74.46 75.98 73.08 C 76.45 72.75 77.40 72.08 77.87 71.74 Z" />
<path fill="#ffffff" opacity="1.00" d=" M 61.00 82.72 C 61.31 82.56 61.93 82.23 62.24 82.07 C 62.80 86.20 63.06 90.39 62.47 94.54 C 60.36 94.00 58.21 93.52 56.26 92.53 C 56.94 91.10 57.59 89.65 58.22 88.20 C 59.08 86.34 60.04 84.53 61.00 82.72 Z" />
<path fill="#ffffff" opacity="1.00" d=" M 105.39 94.21 C 105.64 91.28 105.94 85.63 110.23 86.48 C 111.58 88.51 112.08 91.22 110.47 93.27 C 109.72 95.55 107.08 94.29 105.39 94.21 Z" />
<path fill="#ffffff" opacity="1.00" d=" M 112.73 88.76 C 113.57 86.01 116.93 85.44 119.20 86.74 C 119.34 87.63 119.60 89.40 119.74 90.29 C 120.98 89.10 121.87 86.75 124.02 87.34 C 126.06 87.11 126.50 89.49 127.40 90.80 C 127.21 93.06 126.86 95.30 126.47 97.53 C 124.29 98.75 121.93 98.01 119.83 97.03 C 119.68 95.20 119.37 91.53 119.21 89.70 C 122.25 94.87 116.58 97.58 113.34 95.55 C 110.22 94.55 112.21 90.93 112.73 88.76 Z" />
<path fill="#ffffff" opacity="1.00" d=" M 94.82 87.26 C 95.20 87.23 95.96 87.18 96.34 87.16 C 96.59 88.76 96.85 90.36 97.14 91.96 C 96.77 94.61 96.62 97.28 96.35 99.95 C 93.62 99.06 90.93 98.05 88.19 97.20 C 90.33 93.84 92.52 90.52 94.82 87.26 Z" />
<path fill="#ffffff" opacity="1.00" d=" M 191.22 97.53 C 192.87 95.84 194.52 94.15 196.11 92.39 C 200.08 93.35 203.61 95.45 207.22 97.28 C 201.89 97.41 196.55 97.68 191.22 97.53 Z" />
<path fill="#ffffff" opacity="1.00" d=" M 101.36 105.15 C 101.13 102.89 101.89 100.78 102.91 98.81 C 104.14 99.37 105.41 99.91 106.37 100.89 C 106.60 102.46 105.93 103.93 105.34 105.34 C 104.60 105.72 103.86 106.10 103.12 106.49 C 102.68 106.16 101.80 105.48 101.36 105.15 Z" />
<path fill="#ffffff" opacity="1.00" d=" M 109.99 101.68 C 113.95 100.98 115.97 104.77 116.76 107.98 C 117.12 104.15 121.20 103.58 124.13 104.55 C 124.43 105.05 125.05 106.05 125.35 106.55 C 125.35 106.97 125.34 107.80 125.33 108.21 C 124.21 111.37 122.50 114.61 119.00 115.54 C 118.40 115.22 117.21 114.58 116.61 114.26 C 116.32 112.66 115.45 111.01 116.24 109.40 C 115.89 108.62 115.53 107.84 115.16 107.07 C 115.05 109.74 113.05 111.32 111.06 112.70 C 109.87 111.85 108.68 110.99 107.50 110.13 C 106.97 107.08 107.06 103.51 109.99 101.68 Z" />
<path fill="#ffffff" opacity="1.00" d=" M 176.27 135.74 C 178.52 134.45 180.88 133.36 183.22 132.24 C 185.28 135.44 187.14 138.77 188.75 142.22 C 188.98 142.57 189.43 143.26 189.65 143.61 C 184.85 141.60 180.86 138.15 176.27 135.74 Z" />
<path fill="#ffffff" opacity="1.00" d=" M 116.05 158.73 C 117.49 160.35 120.21 162.02 119.51 164.52 C 116.85 167.46 114.02 170.25 111.31 173.14 C 111.98 170.05 113.00 167.06 114.15 164.12 C 114.77 162.31 115.41 160.52 116.05 158.73 Z" />
<path fill="#ffffff" opacity="1.00" d=" M 154.03 160.16 C 156.07 160.25 158.11 160.41 160.14 160.61 C 160.44 164.49 161.09 168.33 161.40 172.21 C 158.79 168.31 155.32 164.78 154.03 160.16 Z" />
<path fill="#ffffff" opacity="1.00" d=" M 214.48 214.18 C 216.69 213.24 219.14 213.81 221.47 213.69 C 221.88 214.90 222.71 217.32 223.13 218.52 C 223.57 217.20 224.45 214.54 224.89 213.22 C 226.85 215.09 225.23 218.26 225.26 220.57 C 225.00 219.68 224.47 217.90 224.21 217.02 C 223.92 217.90 223.34 219.67 223.05 220.55 C 222.58 219.26 222.13 217.96 221.69 216.66 C 221.42 217.53 220.87 219.27 220.59 220.14 C 220.43 218.15 220.37 216.15 220.41 214.15 C 219.70 214.27 218.28 214.49 217.57 214.60 C 217.61 216.58 217.47 218.54 217.16 220.50 C 216.74 218.50 216.74 216.46 216.68 214.44 L 214.48 214.18 Z" />
<path fill="#ffffff" opacity="1.00" d=" M 56.21 214.55 C 58.03 214.55 59.85 214.55 61.67 214.55 C 61.70 219.57 61.68 224.58 61.68 229.60 C 63.02 229.60 64.35 229.60 65.69 229.61 C 65.69 224.61 65.68 219.60 65.69 214.60 C 67.59 214.57 69.48 214.55 71.38 214.54 C 71.41 226.81 71.39 239.09 71.39 251.36 C 69.49 251.35 67.59 251.33 65.68 251.31 C 65.69 246.03 65.69 240.74 65.68 235.46 C 64.68 235.46 62.68 235.47 61.68 235.47 C 61.69 240.76 61.69 246.06 61.68 251.35 C 59.85 251.35 58.02 251.35 56.19 251.35 C 56.19 239.08 56.16 226.81 56.21 214.55 Z" />
<path fill="#ffffff" opacity="1.00" d=" M 182.58 217.75 C 184.02 215.54 186.28 213.78 189.08 214.14 C 193.43 213.74 196.39 218.04 196.29 222.04 C 196.33 229.34 196.34 236.64 196.28 243.95 C 196.39 247.90 193.22 252.13 188.95 251.57 C 185.33 252.15 182.90 249.03 181.86 245.98 C 181.33 241.01 181.71 236.00 181.60 231.02 C 181.71 226.59 181.08 222.02 182.58 217.75 M 187.70 219.66 C 187.00 228.18 187.44 236.76 187.45 245.31 C 187.85 245.59 188.64 246.15 189.04 246.43 C 189.56 245.99 190.08 245.56 190.60 245.13 C 190.55 236.65 191.14 228.10 190.27 219.65 C 189.41 219.65 188.56 219.65 187.70 219.66 Z" />
<path fill="#ffffff" opacity="1.00" d=" M 199.64 218.86 C 201.40 214.25 207.48 212.51 211.30 215.69 C 214.70 218.76 213.65 223.79 213.83 227.86 C 212.00 227.86 210.17 227.86 208.35 227.86 C 207.89 225.12 209.88 219.81 205.79 219.45 C 205.53 220.04 205.00 221.22 204.73 221.82 C 204.75 225.74 204.79 229.66 204.67 233.59 L 205.32 233.49 C 205.33 234.25 205.35 235.77 205.36 236.53 L 204.68 236.37 C 204.76 238.99 204.76 241.61 204.73 244.23 C 205.00 244.85 205.52 246.08 205.79 246.70 C 210.15 246.19 207.74 240.45 208.33 237.53 C 207.82 237.53 206.80 237.53 206.29 237.53 C 206.31 235.95 206.33 234.37 206.36 232.80 C 208.83 232.80 211.30 232.80 213.78 232.79 C 213.88 238.98 213.80 245.17 213.83 251.36 C 213.10 251.34 211.65 251.30 210.92 251.29 C 209.73 249.18 207.69 251.89 205.99 251.57 C 202.97 252.13 200.76 249.73 199.54 247.30 C 199.35 237.82 199.17 228.33 199.64 218.86 Z" />
<path fill="#ffffff" opacity="1.00" d=" M 38.68 214.56 C 43.92 214.56 49.16 214.56 54.40 214.56 C 54.40 216.43 54.40 218.31 54.41 220.19 C 52.69 220.19 50.98 220.19 49.27 220.19 C 49.27 230.57 49.27 240.96 49.27 251.34 C 47.39 251.34 45.51 251.35 43.64 251.35 C 43.64 240.97 43.63 230.59 43.64 220.21 C 41.98 220.20 40.33 220.19 38.67 220.18 C 38.67 218.30 38.68 216.43 38.68 214.56 Z" />
<path fill="#ffffff" opacity="1.00" d=" M 75.14 229.08 C 75.57 224.21 74.17 219.30 75.31 214.49 C 79.38 214.60 83.44 214.54 87.51 214.57 C 87.51 216.44 87.51 218.31 87.52 220.19 C 85.22 220.19 82.92 220.19 80.62 220.19 C 80.61 223.33 80.62 226.46 80.61 229.60 C 82.26 229.60 83.91 229.60 85.56 229.60 C 85.56 231.61 85.56 233.61 85.56 235.62 C 83.91 235.62 82.26 235.62 80.62 235.62 C 80.61 238.93 80.61 242.23 80.62 245.53 C 82.92 245.52 85.22 245.52 87.52 245.54 C 87.51 247.47 87.51 249.40 87.51 251.34 C 83.39 251.35 79.27 251.35 75.15 251.34 C 75.17 248.23 75.30 245.10 74.90 242.00 C 75.61 237.70 74.59 233.38 75.14 229.08 Z" />
<path fill="#ffffff" opacity="1.00" d=" M 98.11 214.55 C 101.78 214.68 105.73 213.97 109.12 215.78 C 110.77 216.58 111.42 218.41 112.40 219.84 C 112.68 222.60 112.70 225.39 112.47 228.16 C 111.55 229.40 110.62 230.62 109.67 231.83 C 111.83 233.59 112.62 236.28 113.26 238.86 C 113.25 240.26 113.24 241.67 113.24 243.07 C 112.41 245.65 111.73 248.77 109.12 250.16 C 105.69 251.85 101.77 251.26 98.09 251.35 C 98.10 239.08 98.06 226.82 98.11 214.55 M 103.67 219.92 C 103.59 223.22 103.59 226.52 103.65 229.83 C 105.21 229.46 106.57 228.64 107.35 227.20 C 107.35 225.72 107.36 224.24 107.42 222.76 C 106.75 221.16 105.29 220.31 103.67 219.92 M 103.74 234.33 C 103.53 238.23 103.59 242.13 103.69 246.03 C 105.31 245.56 106.58 244.60 107.37 243.11 C 107.38 241.04 107.34 238.97 107.20 236.91 C 106.32 235.71 105.02 234.99 103.74 234.33 Z" />
<path fill="#ffffff" opacity="1.00" d=" M 116.15 214.55 C 117.98 214.55 119.80 214.55 121.63 214.55 C 121.70 224.39 121.58 234.23 121.68 244.06 C 121.22 246.10 123.40 245.83 124.67 245.89 C 124.87 235.46 124.70 225.03 124.76 214.60 C 126.67 214.57 128.59 214.56 130.51 214.55 C 130.51 224.38 130.53 234.20 130.51 244.02 C 130.55 246.96 128.94 250.07 126.17 251.28 C 123.85 251.64 121.19 251.99 119.16 250.55 C 116.73 248.92 116.03 245.74 116.13 242.99 C 116.15 233.51 116.12 224.03 116.15 214.55 Z" />
<path fill="#ffffff" opacity="1.00" d=" M 134.39 251.35 C 134.39 239.08 134.36 226.81 134.40 214.55 C 136.20 214.55 138.01 214.56 139.81 214.57 C 140.72 219.75 139.52 224.95 139.90 230.14 C 140.52 235.50 139.10 240.93 140.32 246.26 C 142.58 246.21 144.84 246.21 147.10 246.21 C 147.10 247.92 147.10 249.63 147.10 251.35 C 142.86 251.35 138.62 251.35 134.39 251.35 Z" />
<path fill="#ffffff" opacity="1.00" d=" M 148.81 214.61 C 150.72 214.57 152.64 214.55 154.56 214.54 C 154.61 225.10 154.53 235.66 154.60 246.22 C 156.95 246.21 159.30 246.21 161.66 246.22 C 161.66 247.92 161.66 249.63 161.66 251.35 C 157.37 251.34 153.09 251.38 148.81 251.31 C 149.00 243.54 148.42 235.74 149.12 228.00 C 148.47 223.57 148.96 219.07 148.81 214.61 Z" />
<path fill="#ffffff" opacity="1.00" d=" M 163.56 251.34 C 163.56 239.09 163.56 226.83 163.56 214.58 C 167.75 214.75 172.84 213.61 176.15 216.86 C 178.85 220.24 178.52 224.91 178.66 228.98 C 178.41 235.09 179.43 241.47 177.25 247.33 C 174.67 252.22 168.18 251.18 163.56 251.34 M 169.39 219.92 C 169.28 228.60 169.25 237.29 169.41 245.98 C 173.11 245.76 172.76 241.74 172.84 239.05 C 172.70 233.67 173.09 228.26 172.61 222.89 C 172.66 221.05 170.95 220.19 169.39 219.92 Z" />
</g>
<g id="#0045c0ff">
<path fill="#0045c0" opacity="1.00" d=" M 115.07 9.12 C 138.46 5.96 162.88 12.21 181.91 26.18 C 191.29 33.20 199.63 41.77 205.79 51.78 C 199.70 52.73 193.51 52.76 187.37 53.40 C 188.29 50.80 189.19 48.19 190.04 45.56 C 186.95 45.30 183.89 44.42 181.40 42.53 C 177.69 40.14 176.53 35.57 173.59 32.49 C 170.45 29.81 165.83 28.34 161.84 29.87 C 157.89 31.57 155.26 35.16 152.79 38.52 C 147.52 38.32 142.28 37.85 137.02 37.71 C 135.90 34.05 135.11 29.61 131.44 27.58 C 127.84 26.42 123.80 27.47 120.98 29.93 C 116.80 33.11 114.44 37.92 111.70 42.26 C 104.63 43.53 98.10 46.63 91.60 49.55 C 87.82 51.27 84.23 54.00 82.61 57.94 C 82.28 59.79 83.41 61.47 83.91 63.19 C 83.04 65.70 82.12 68.20 81.23 70.71 C 76.06 70.39 74.80 64.57 71.01 62.04 C 69.84 60.76 68.13 61.49 66.68 61.63 C 69.86 65.13 74.17 68.04 75.29 72.92 C 71.41 70.37 68.82 65.34 63.77 65.01 C 65.98 68.87 70.79 70.57 72.09 75.05 C 69.04 73.11 66.14 70.68 62.44 70.14 C 62.46 70.60 62.50 71.54 62.52 72.00 C 64.77 73.22 66.95 74.58 69.04 76.07 C 67.92 77.41 66.80 78.74 65.68 80.08 C 64.99 78.74 64.30 77.40 63.61 76.07 C 58.97 80.96 56.05 87.06 53.50 93.21 C 47.81 94.91 42.96 99.84 42.77 105.99 C 42.12 110.93 46.54 114.13 49.72 117.10 C 49.83 122.60 52.17 128.04 56.78 131.23 C 60.58 134.22 65.32 135.62 70.05 136.23 C 74.49 136.58 77.83 139.99 82.12 140.86 C 84.74 141.74 88.27 141.44 89.73 144.27 C 94.38 151.00 99.53 157.63 106.59 161.99 C 107.58 167.69 107.94 173.47 108.86 179.18 C 112.96 176.33 116.26 172.53 119.90 169.15 C 128.77 170.94 137.80 173.38 146.91 172.04 C 149.14 172.00 151.62 170.89 153.68 172.17 C 157.36 174.32 160.74 176.93 164.43 179.05 C 164.36 173.87 164.22 168.69 164.35 163.50 C 170.91 159.14 176.72 153.79 181.93 147.91 C 186.11 147.89 190.28 147.87 194.45 147.86 C 192.60 144.08 190.85 140.25 189.40 136.29 C 195.16 127.31 199.11 117.13 200.80 106.59 C 205.07 103.50 209.68 100.95 214.19 98.24 C 210.23 95.71 205.63 94.14 202.04 91.10 C 201.63 83.05 199.31 75.32 196.18 67.93 C 199.74 62.90 202.52 57.34 206.51 52.64 C 218.00 71.74 222.83 94.90 218.88 116.91 C 215.13 139.51 202.60 160.49 184.52 174.55 C 170.71 185.42 153.75 192.33 136.23 193.90 C 130.48 194.79 124.64 194.26 118.86 194.29 L 118.20 193.76 C 100.77 192.63 83.97 185.42 70.17 174.85 C 51.68 160.62 38.91 139.17 35.30 116.11 C 33.91 108.83 34.30 101.37 34.42 94.00 C 36.26 69.27 48.60 45.49 67.82 29.78 C 81.17 18.59 97.79 11.33 115.07 9.12 M 71.22 142.36 C 66.86 144.15 67.27 151.85 71.91 153.02 C 75.33 154.42 79.62 151.83 79.54 148.03 C 80.30 143.64 75.02 140.13 71.22 142.36 Z" />
<path fill="#0045c0" opacity="1.00" d=" M 70.81 151.44 C 69.27 148.67 68.87 143.48 73.10 143.28 C 76.76 142.31 78.78 146.48 78.16 149.53 C 76.23 149.49 74.31 149.51 72.38 149.55 C 72.15 147.25 72.93 145.31 74.72 143.73 C 69.11 143.12 70.57 147.93 71.58 150.61 C 73.53 150.63 75.49 150.68 77.44 150.79 C 75.38 151.98 73.04 151.62 70.81 151.44 Z" />
</g>
<g id="#11110cff">
<path fill="#11110c" opacity="1.00" d=" M 120.98 29.93 C 123.80 27.47 127.84 26.42 131.44 27.58 C 135.11 29.61 135.90 34.05 137.02 37.71 C 142.28 37.85 147.52 38.32 152.79 38.52 C 155.26 35.16 157.89 31.57 161.84 29.87 C 165.83 28.34 170.45 29.81 173.59 32.49 C 176.53 35.57 177.69 40.14 181.40 42.53 C 183.89 44.42 186.95 45.30 190.04 45.56 C 189.19 48.19 188.29 50.80 187.37 53.40 C 193.51 52.76 199.70 52.73 205.79 51.78 C 206.02 51.91 206.47 52.17 206.69 52.30 L 206.51 52.64 C 202.52 57.34 199.74 62.90 196.18 67.93 C 199.31 75.32 201.63 83.05 202.04 91.10 C 205.63 94.14 210.23 95.71 214.19 98.24 C 209.68 100.95 205.07 103.50 200.80 106.59 C 199.11 117.13 195.16 127.31 189.40 136.29 C 190.85 140.25 192.60 144.08 194.45 147.86 C 190.28 147.87 186.11 147.89 181.93 147.91 C 176.72 153.79 170.91 159.14 164.35 163.50 C 164.22 168.69 164.36 173.87 164.43 179.05 C 160.74 176.93 157.36 174.32 153.68 172.17 C 151.62 170.89 149.14 172.00 146.91 172.04 C 137.80 173.38 128.77 170.94 119.90 169.15 C 116.26 172.53 112.96 176.33 108.86 179.18 C 107.94 173.47 107.58 167.69 106.59 161.99 C 99.53 157.63 94.38 151.00 89.73 144.27 C 88.27 141.44 84.74 141.74 82.12 140.86 C 77.83 139.99 74.49 136.58 70.05 136.23 C 65.32 135.62 60.58 134.22 56.78 131.23 C 52.17 128.04 49.83 122.60 49.72 117.10 C 46.54 114.13 42.12 110.93 42.77 105.99 C 42.96 99.84 47.81 94.91 53.50 93.21 C 56.05 87.06 58.97 80.96 63.61 76.07 C 64.30 77.40 64.99 78.74 65.68 80.08 C 66.80 78.74 67.92 77.41 69.04 76.07 C 66.95 74.58 64.77 73.22 62.52 72.00 C 62.50 71.54 62.46 70.60 62.44 70.14 C 66.14 70.68 69.04 73.11 72.09 75.05 C 70.79 70.57 65.98 68.87 63.77 65.01 C 68.82 65.34 71.41 70.37 75.29 72.92 C 74.17 68.04 69.86 65.13 66.68 61.63 C 68.13 61.49 69.84 60.76 71.01 62.04 C 74.80 64.57 76.06 70.39 81.23 70.71 C 82.12 68.20 83.04 65.70 83.91 63.19 C 83.41 61.47 82.28 59.79 82.61 57.94 C 84.23 54.00 87.82 51.27 91.60 49.55 C 98.10 46.63 104.63 43.53 111.70 42.26 C 114.44 37.92 116.80 33.11 120.98 29.93 M 125.18 30.43 C 127.07 32.85 128.57 35.62 128.52 38.78 C 130.18 38.66 131.83 38.54 133.49 38.42 C 132.54 35.81 132.20 32.75 130.14 30.73 C 128.59 29.93 126.82 30.31 125.18 30.43 M 115.78 41.21 C 118.46 40.11 122.99 41.43 124.26 38.08 C 124.45 36.11 124.67 33.96 123.69 32.15 C 119.94 33.75 117.20 37.46 115.78 41.21 M 150.01 46.99 C 147.22 44.85 150.35 42.35 150.71 39.81 C 143.39 39.37 136.07 39.66 128.82 40.69 C 114.50 43.04 99.30 46.25 88.33 56.46 C 86.08 58.86 86.57 62.39 89.00 64.46 C 92.89 64.89 97.30 65.37 100.32 62.34 C 102.71 54.40 111.12 51.56 118.19 49.23 C 113.76 53.92 105.78 53.98 102.49 59.99 C 102.24 61.87 101.73 64.41 103.84 65.42 C 106.27 66.21 108.95 65.47 110.95 63.96 C 114.31 61.61 117.93 59.38 122.01 58.58 C 128.00 57.75 133.22 61.65 139.13 61.81 C 133.84 65.96 128.07 59.83 122.34 60.33 C 124.81 64.02 123.96 68.93 121.12 72.15 C 123.72 73.81 126.32 75.46 129.04 76.93 C 137.26 80.47 143.12 87.53 149.57 93.47 C 159.07 102.00 163.07 114.84 164.80 127.13 C 165.49 126.70 166.12 126.20 166.69 125.62 C 173.33 117.44 176.38 107.08 178.32 96.90 C 179.71 89.14 177.34 81.43 174.72 74.20 C 174.16 72.57 173.23 71.10 172.21 69.73 C 171.65 70.27 170.54 71.35 169.99 71.89 C 168.69 70.88 167.51 69.74 166.53 68.42 C 171.73 65.52 174.67 59.66 174.38 53.78 C 172.29 52.78 170.06 52.11 167.72 52.32 C 165.81 55.96 167.13 61.63 162.46 63.30 C 162.04 59.08 162.52 52.50 157.39 51.02 C 156.75 47.59 159.22 42.72 163.02 42.82 C 167.72 45.15 170.77 50.19 176.10 51.42 C 179.29 52.18 183.93 51.76 185.11 48.12 C 179.10 46.85 175.40 41.52 172.22 36.71 C 169.84 33.02 164.81 32.68 160.93 33.67 C 155.75 36.68 153.52 42.46 150.01 46.99 M 185.85 55.79 C 185.42 57.91 184.99 60.02 184.58 62.14 C 187.39 60.84 190.06 59.25 192.78 57.75 C 195.42 56.52 198.02 55.16 200.36 53.40 C 195.45 53.69 190.63 54.74 185.85 55.79 M 178.60 54.66 C 178.13 57.44 176.40 60.40 177.83 63.15 C 182.10 73.25 186.00 83.91 185.62 95.04 C 184.96 107.33 179.75 118.90 173.13 129.10 C 170.46 133.39 166.33 136.38 162.91 139.98 C 160.84 144.24 159.85 149.07 156.91 152.89 C 155.40 154.67 153.55 156.12 151.85 157.70 C 155.87 158.03 160.27 156.82 164.00 158.85 C 169.25 156.00 173.64 151.78 176.94 146.83 C 174.98 146.61 173.02 146.41 171.06 146.19 C 171.90 142.26 172.46 138.24 173.69 134.41 C 177.04 132.20 180.86 130.77 184.49 129.05 C 185.31 129.94 186.09 131.77 187.54 130.60 C 191.52 123.72 194.70 116.26 196.02 108.38 C 195.27 108.42 193.77 108.51 193.02 108.55 C 191.23 105.34 188.31 102.63 187.27 99.09 C 189.29 95.32 192.53 92.22 195.22 88.88 C 195.88 88.75 197.19 88.51 197.85 88.39 C 197.63 82.37 195.78 76.57 193.31 71.12 C 192.72 71.26 191.55 71.54 190.96 71.67 C 187.67 69.67 184.46 67.55 181.20 65.48 C 181.78 61.42 183.68 57.68 184.09 53.58 C 182.26 53.94 180.43 54.31 178.60 54.66 M 115.20 63.62 C 115.43 66.64 114.95 69.64 114.63 72.64 C 117.27 71.71 119.61 70.07 120.36 67.23 C 120.32 66.45 120.29 65.67 120.25 64.89 C 119.97 64.22 119.42 62.88 119.14 62.21 C 117.80 62.61 116.49 63.10 115.20 63.62 M 99.94 66.41 C 99.94 70.96 97.01 74.53 94.75 78.20 C 99.12 78.94 103.43 77.88 107.43 76.16 C 107.41 73.78 107.40 71.39 107.38 69.01 C 104.77 68.57 102.23 67.75 99.94 66.41 M 174.25 66.21 C 176.96 70.81 178.45 75.98 179.88 81.09 C 183.72 94.85 179.60 109.55 172.63 121.60 C 170.07 126.05 165.80 129.37 163.84 134.17 C 167.56 132.15 169.74 128.39 172.18 125.09 C 177.94 117.13 181.21 107.58 182.34 97.87 C 183.70 87.04 180.76 75.99 175.74 66.44 C 175.37 66.38 174.63 66.26 174.25 66.21 M 89.40 69.28 C 88.71 70.59 88.02 71.91 87.32 73.21 C 88.62 74.42 89.90 76.15 91.93 75.43 C 94.82 73.28 96.69 69.84 96.47 66.18 C 94.16 66.37 91.84 66.57 89.53 66.73 C 89.49 67.37 89.43 68.64 89.40 69.28 M 77.87 71.74 C 77.40 72.08 76.45 72.75 75.98 73.08 C 78.37 74.46 80.66 76.36 83.53 76.58 C 83.76 73.96 81.24 72.71 79.34 71.59 C 78.97 71.63 78.24 71.71 77.87 71.74 M 65.66 83.46 C 65.70 87.53 65.85 91.60 65.54 95.66 C 67.91 97.22 70.75 96.67 73.38 96.30 C 73.86 92.47 74.73 88.70 76.24 85.14 C 77.61 82.27 75.11 79.63 74.21 77.04 C 70.70 77.95 67.48 80.34 65.66 83.46 M 101.03 80.79 C 95.88 81.53 91.13 77.43 86.01 79.37 C 79.86 80.62 74.77 86.58 75.75 93.01 C 77.73 97.08 83.23 97.87 87.15 96.58 C 89.48 92.52 91.88 88.40 95.18 85.04 C 95.71 84.38 96.39 84.18 97.22 84.44 C 99.09 87.69 99.38 91.50 99.51 95.16 C 101.90 93.73 104.39 91.99 104.70 88.95 C 103.88 87.96 103.24 86.85 102.81 85.64 C 106.54 85.26 110.23 84.52 113.78 83.33 C 120.07 81.02 127.01 84.00 131.56 88.45 C 135.20 91.87 139.65 94.26 143.19 97.78 C 141.25 97.73 139.33 97.55 137.41 97.36 C 140.99 107.65 138.34 118.46 138.80 129.02 C 139.28 132.77 139.88 136.53 141.63 139.94 C 139.13 139.53 137.91 137.03 137.21 134.86 C 134.73 125.79 137.13 116.34 136.22 107.15 C 135.06 101.61 134.71 95.32 130.46 91.10 C 134.23 106.08 121.66 118.42 121.33 133.00 C 120.91 140.08 122.93 147.75 128.23 152.74 C 131.60 156.11 135.95 159.33 140.99 158.88 C 149.22 159.27 155.48 152.19 157.98 144.99 C 162.18 134.76 160.16 123.45 157.67 113.08 C 153.88 102.41 146.30 93.48 137.58 86.43 C 132.80 81.64 126.58 78.58 120.19 76.59 C 113.53 76.14 107.66 80.55 101.03 80.79 M 61.00 82.72 C 60.04 84.53 59.08 86.34 58.22 88.20 C 57.59 89.65 56.94 91.10 56.26 92.53 C 58.21 93.52 60.36 94.00 62.47 94.54 C 63.06 90.39 62.80 86.20 62.24 82.07 C 61.93 82.23 61.31 82.56 61.00 82.72 M 105.39 94.21 C 107.08 94.29 109.72 95.55 110.47 93.27 C 112.08 91.22 111.58 88.51 110.23 86.48 C 105.94 85.63 105.64 91.28 105.39 94.21 M 112.73 88.76 C 112.21 90.93 110.22 94.55 113.34 95.55 C 116.58 97.58 122.25 94.87 119.21 89.70 C 119.37 91.53 119.68 95.20 119.83 97.03 C 121.93 98.01 124.29 98.75 126.47 97.53 C 126.86 95.30 127.21 93.06 127.40 90.80 C 126.50 89.49 126.06 87.11 124.02 87.34 C 121.87 86.75 120.98 89.10 119.74 90.29 C 119.60 89.40 119.34 87.63 119.20 86.74 C 116.93 85.44 113.57 86.01 112.73 88.76 M 94.82 87.26 C 92.52 90.52 90.33 93.84 88.19 97.20 C 90.93 98.05 93.62 99.06 96.35 99.95 C 96.62 97.28 96.77 94.61 97.14 91.96 C 96.85 90.36 96.59 88.76 96.34 87.16 C 95.96 87.18 95.20 87.23 94.82 87.26 M 191.22 97.53 C 196.55 97.68 201.89 97.41 207.22 97.28 C 203.61 95.45 200.08 93.35 196.11 92.39 C 194.52 94.15 192.87 95.84 191.22 97.53 M 53.51 96.75 C 49.11 98.13 45.98 102.51 45.55 107.03 C 45.27 109.59 47.70 111.25 49.52 112.56 C 52.64 114.74 56.57 114.50 60.18 114.28 C 69.68 110.25 80.71 107.01 90.73 111.22 C 97.93 114.62 103.19 121.22 110.82 123.89 C 110.74 124.26 110.59 125.00 110.52 125.37 C 104.07 124.79 99.65 119.56 93.98 117.05 C 87.87 114.21 80.94 111.11 74.12 113.23 C 71.58 113.98 68.23 114.78 67.79 117.90 C 67.10 122.43 69.47 126.65 71.26 130.64 C 75.58 137.47 84.52 139.35 92.08 138.51 C 89.75 134.75 85.17 131.49 86.49 126.49 C 86.91 126.39 87.74 126.18 88.16 126.07 C 90.58 132.60 95.72 138.97 103.00 139.97 C 108.49 140.61 114.54 141.25 119.51 138.30 C 118.93 131.88 119.11 125.25 121.88 119.31 C 117.63 119.41 113.26 118.72 109.59 116.47 C 102.09 112.37 98.23 103.65 90.21 100.35 C 83.30 97.97 75.55 98.05 68.75 100.77 C 65.20 102.31 62.53 105.28 59.05 106.93 C 59.87 103.59 64.79 103.43 64.93 99.81 C 61.66 97.47 57.55 96.04 53.51 96.75 M 101.36 105.15 C 101.80 105.48 102.68 106.16 103.12 106.49 C 103.86 106.10 104.60 105.72 105.34 105.34 C 105.93 103.93 106.60 102.46 106.37 100.89 C 105.41 99.91 104.14 99.37 102.91 98.81 C 101.89 100.78 101.13 102.89 101.36 105.15 M 109.99 101.68 C 107.06 103.51 106.97 107.08 107.50 110.13 C 108.68 110.99 109.87 111.85 111.06 112.70 C 113.05 111.32 115.05 109.74 115.16 107.07 C 115.53 107.84 115.89 108.62 116.24 109.40 C 115.45 111.01 116.32 112.66 116.61 114.26 C 117.21 114.58 118.40 115.22 119.00 115.54 C 122.50 114.61 124.21 111.37 125.33 108.21 C 125.34 107.80 125.35 106.97 125.35 106.55 C 125.05 106.05 124.43 105.05 124.13 104.55 C 121.20 103.58 117.12 104.15 116.76 107.98 C 115.97 104.77 113.95 100.98 109.99 101.68 M 53.03 117.61 C 53.05 122.84 55.97 127.95 60.50 130.57 C 63.22 132.18 66.44 132.55 69.53 132.87 C 66.40 128.01 64.52 122.36 64.32 116.57 C 60.55 116.86 56.81 117.46 53.03 117.61 M 176.27 135.74 C 180.86 138.15 184.85 141.60 189.65 143.61 C 189.43 143.26 188.98 142.57 188.75 142.22 C 187.14 138.77 185.28 135.44 183.22 132.24 C 180.88 133.36 178.52 134.45 176.27 135.74 M 90.80 141.37 C 95.40 146.89 99.69 152.79 105.38 157.26 C 105.67 156.60 106.25 155.26 106.54 154.59 C 110.25 154.38 113.97 154.21 117.69 154.20 C 119.47 157.55 121.86 160.56 123.48 164.00 C 123.42 164.53 123.30 165.58 123.24 166.10 C 130.84 168.63 138.85 169.03 146.79 168.57 C 146.57 167.77 146.36 166.97 146.15 166.17 C 147.96 163.57 149.99 161.07 151.20 158.10 C 146.87 160.37 141.83 161.03 137.02 160.31 C 133.39 159.77 130.72 157.06 128.14 154.70 C 122.70 153.89 117.29 152.36 112.67 149.29 C 109.85 147.70 107.61 145.03 104.38 144.25 C 99.80 143.25 95.70 140.13 90.80 141.37 M 114.94 143.96 C 117.17 145.21 119.49 146.33 121.93 147.13 C 121.36 145.28 120.73 143.46 120.11 141.63 C 118.37 142.38 116.65 143.15 114.94 143.96 M 110.00 144.33 C 113.67 148.13 119.03 150.26 124.26 150.71 C 122.86 149.17 120.70 148.92 118.87 148.20 C 115.75 147.26 113.22 144.96 110.00 144.33 M 116.05 158.73 C 115.41 160.52 114.77 162.31 114.15 164.12 C 113.00 167.06 111.98 170.05 111.31 173.14 C 114.02 170.25 116.85 167.46 119.51 164.52 C 120.21 162.02 117.49 160.35 116.05 158.73 M 154.03 160.16 C 155.32 164.78 158.79 168.31 161.40 172.21 C 161.09 168.33 160.44 164.49 160.14 160.61 C 158.11 160.41 156.07 160.25 154.03 160.16 Z" />
<path fill="#11110c" opacity="1.00" d=" M 97.74 55.36 C 98.33 51.37 102.95 50.67 105.99 49.20 C 104.49 52.23 101.22 55.14 97.74 55.36 Z" />
<path fill="#11110c" opacity="1.00" d=" M 123.77 52.85 C 129.34 51.14 135.06 48.96 140.99 49.59 C 147.07 50.62 151.11 56.32 152.58 61.94 C 153.22 65.97 149.71 68.94 146.49 70.58 C 143.80 71.83 140.90 73.29 137.85 72.64 C 141.89 70.67 147.23 69.11 148.32 64.06 C 148.61 59.20 145.41 53.23 140.02 53.01 C 134.15 51.51 128.76 55.13 122.98 55.26 C 123.18 54.65 123.57 53.45 123.77 52.85 Z" />
<path fill="#11110c" opacity="1.00" d=" M 107.09 60.74 C 107.11 56.52 111.75 54.94 115.14 54.14 C 114.17 56.39 112.08 57.87 110.70 59.85 C 110.00 61.26 108.29 60.57 107.09 60.74 Z" />
<path fill="#11110c" opacity="1.00" d=" M 83.71 82.68 C 84.17 82.65 85.10 82.59 85.57 82.55 C 85.59 83.11 85.65 84.23 85.68 84.78 C 85.14 84.74 84.06 84.64 83.52 84.59 C 83.57 84.11 83.66 83.16 83.71 82.68 Z" />
<path fill="#11110c" opacity="1.00" d=" M 88.61 82.17 C 91.46 79.32 91.54 86.73 88.61 83.98 C 88.61 83.53 88.61 82.63 88.61 82.17 Z" />
<path fill="#11110c" opacity="1.00" d=" M 68.36 84.55 C 69.26 83.19 71.51 84.71 70.44 86.04 C 69.53 87.48 67.28 85.87 68.36 84.55 Z" />
<path fill="#11110c" opacity="1.00" d=" M 70.44 88.43 C 71.50 86.88 73.83 88.84 72.65 90.20 C 71.55 91.68 69.23 89.81 70.44 88.43 Z" />
<path fill="#11110c" opacity="1.00" d=" M 86.22 88.26 C 87.67 87.26 89.60 89.63 87.85 90.56 C 86.42 91.54 84.51 89.17 86.22 88.26 Z" />
<path fill="#11110c" opacity="1.00" d=" M 80.13 89.30 C 81.51 88.22 83.62 90.42 81.89 91.46 C 80.53 92.57 78.45 90.31 80.13 89.30 Z" />
<path fill="#11110c" opacity="1.00" d=" M 71.22 142.36 C 75.02 140.13 80.30 143.64 79.54 148.03 C 79.62 151.83 75.33 154.42 71.91 153.02 C 67.27 151.85 66.86 144.15 71.22 142.36 M 70.81 151.44 C 73.04 151.62 75.38 151.98 77.44 150.79 C 75.49 150.68 73.53 150.63 71.58 150.61 C 70.57 147.93 69.11 143.12 74.72 143.73 C 72.93 145.31 72.15 147.25 72.38 149.55 C 74.31 149.51 76.23 149.49 78.16 149.53 C 78.78 146.48 76.76 142.31 73.10 143.28 C 68.87 143.48 69.27 148.67 70.81 151.44 Z" />
</g>
<g id="#ffd200ff">
<path fill="#ffd200" opacity="1.00" d=" M 125.18 30.43 C 126.82 30.31 128.59 29.93 130.14 30.73 C 132.20 32.75 132.54 35.81 133.49 38.42 C 131.83 38.54 130.18 38.66 128.52 38.78 C 128.57 35.62 127.07 32.85 125.18 30.43 Z" />
<path fill="#ffd200" opacity="1.00" d=" M 115.78 41.21 C 117.20 37.46 119.94 33.75 123.69 32.15 C 124.67 33.96 124.45 36.11 124.26 38.08 C 122.99 41.43 118.46 40.11 115.78 41.21 Z" />
<path fill="#ffd200" opacity="1.00" d=" M 150.01 46.99 C 153.52 42.46 155.75 36.68 160.93 33.67 C 164.81 32.68 169.84 33.02 172.22 36.71 C 175.40 41.52 179.10 46.85 185.11 48.12 C 183.93 51.76 179.29 52.18 176.10 51.42 C 170.77 50.19 167.72 45.15 163.02 42.82 C 159.22 42.72 156.75 47.59 157.39 51.02 C 162.52 52.50 162.04 59.08 162.46 63.30 C 167.13 61.63 165.81 55.96 167.72 52.32 C 170.06 52.11 172.29 52.78 174.38 53.78 C 174.67 59.66 171.73 65.52 166.53 68.42 C 167.51 69.74 168.69 70.88 169.99 71.89 C 170.54 71.35 171.65 70.27 172.21 69.73 C 173.23 71.10 174.16 72.57 174.72 74.20 C 177.34 81.43 179.71 89.14 178.32 96.90 C 176.38 107.08 173.33 117.44 166.69 125.62 C 166.12 126.20 165.49 126.70 164.80 127.13 C 163.07 114.84 159.07 102.00 149.57 93.47 C 143.12 87.53 137.26 80.47 129.04 76.93 C 126.32 75.46 123.72 73.81 121.12 72.15 C 123.96 68.93 124.81 64.02 122.34 60.33 C 128.07 59.83 133.84 65.96 139.13 61.81 C 133.22 61.65 128.00 57.75 122.01 58.58 C 117.93 59.38 114.31 61.61 110.95 63.96 C 108.95 65.47 106.27 66.21 103.84 65.42 C 101.73 64.41 102.24 61.87 102.49 59.99 C 105.78 53.98 113.76 53.92 118.19 49.23 C 111.12 51.56 102.71 54.40 100.32 62.34 C 97.30 65.37 92.89 64.89 89.00 64.46 C 86.57 62.39 86.08 58.86 88.33 56.46 C 99.30 46.25 114.50 43.04 128.82 40.69 C 136.07 39.66 143.39 39.37 150.71 39.81 C 150.35 42.35 147.22 44.85 150.01 46.99 M 97.74 55.36 C 101.22 55.14 104.49 52.23 105.99 49.20 C 102.95 50.67 98.33 51.37 97.74 55.36 M 123.77 52.85 C 123.57 53.45 123.18 54.65 122.98 55.26 C 128.76 55.13 134.15 51.51 140.02 53.01 C 145.41 53.23 148.61 59.20 148.32 64.06 C 147.23 69.11 141.89 70.67 137.85 72.64 C 140.90 73.29 143.80 71.83 146.49 70.58 C 149.71 68.94 153.22 65.97 152.58 61.94 C 151.11 56.32 147.07 50.62 140.99 49.59 C 135.06 48.96 129.34 51.14 123.77 52.85 M 107.09 60.74 C 108.29 60.57 110.00 61.26 110.70 59.85 C 112.08 57.87 114.17 56.39 115.14 54.14 C 111.75 54.94 107.11 56.52 107.09 60.74 Z" />
<path fill="#ffd200" opacity="1.00" d=" M 99.94 66.41 C 102.23 67.75 104.77 68.57 107.38 69.01 C 107.40 71.39 107.41 73.78 107.43 76.16 C 103.43 77.88 99.12 78.94 94.75 78.20 C 97.01 74.53 99.94 70.96 99.94 66.41 Z" />
<path fill="#ffd200" opacity="1.00" d=" M 65.66 83.46 C 67.48 80.34 70.70 77.95 74.21 77.04 C 75.11 79.63 77.61 82.27 76.24 85.14 C 74.73 88.70 73.86 92.47 73.38 96.30 C 70.75 96.67 67.91 97.22 65.54 95.66 C 65.85 91.60 65.70 87.53 65.66 83.46 M 68.36 84.55 C 67.28 85.87 69.53 87.48 70.44 86.04 C 71.51 84.71 69.26 83.19 68.36 84.55 M 70.44 88.43 C 69.23 89.81 71.55 91.68 72.65 90.20 C 73.83 88.84 71.50 86.88 70.44 88.43 Z" />
<path fill="#ffd200" opacity="1.00" d=" M 101.03 80.79 C 107.66 80.55 113.53 76.14 120.19 76.59 C 126.58 78.58 132.80 81.64 137.58 86.43 C 146.30 93.48 153.88 102.41 157.67 113.08 C 160.16 123.45 162.18 134.76 157.98 144.99 C 155.48 152.19 149.22 159.27 140.99 158.88 C 135.95 159.33 131.60 156.11 128.23 152.74 C 122.93 147.75 120.91 140.08 121.33 133.00 C 121.66 118.42 134.23 106.08 130.46 91.10 C 134.71 95.32 135.06 101.61 136.22 107.15 C 137.13 116.34 134.73 125.79 137.21 134.86 C 137.91 137.03 139.13 139.53 141.63 139.94 C 139.88 136.53 139.28 132.77 138.80 129.02 C 138.34 118.46 140.99 107.65 137.41 97.36 C 139.33 97.55 141.25 97.73 143.19 97.78 C 139.65 94.26 135.20 91.87 131.56 88.45 C 127.01 84.00 120.07 81.02 113.78 83.33 C 110.23 84.52 106.54 85.26 102.81 85.64 C 103.24 86.85 103.88 87.96 104.70 88.95 C 104.39 91.99 101.90 93.73 99.51 95.16 C 99.38 91.50 99.09 87.69 97.22 84.44 C 96.39 84.18 95.71 84.38 95.18 85.04 C 91.88 88.40 89.48 92.52 87.15 96.58 C 83.23 97.87 77.73 97.08 75.75 93.01 C 74.77 86.58 79.86 80.62 86.01 79.37 C 91.13 77.43 95.88 81.53 101.03 80.79 M 83.71 82.68 C 83.66 83.16 83.57 84.11 83.52 84.59 C 84.06 84.64 85.14 84.74 85.68 84.78 C 85.65 84.23 85.59 83.11 85.57 82.55 C 85.10 82.59 84.17 82.65 83.71 82.68 M 88.61 82.17 C 88.61 82.63 88.61 83.53 88.61 83.98 C 91.54 86.73 91.46 79.32 88.61 82.17 M 86.22 88.26 C 84.51 89.17 86.42 91.54 87.85 90.56 C 89.60 89.63 87.67 87.26 86.22 88.26 M 80.13 89.30 C 78.45 90.31 80.53 92.57 81.89 91.46 C 83.62 90.42 81.51 88.22 80.13 89.30 Z" />
<path fill="#ffd200" opacity="1.00" d=" M 53.51 96.75 C 57.55 96.04 61.66 97.47 64.93 99.81 C 64.79 103.43 59.87 103.59 59.05 106.93 C 62.53 105.28 65.20 102.31 68.75 100.77 C 75.55 98.05 83.30 97.97 90.21 100.35 C 98.23 103.65 102.09 112.37 109.59 116.47 C 113.26 118.72 117.63 119.41 121.88 119.31 C 119.11 125.25 118.93 131.88 119.51 138.30 C 114.54 141.25 108.49 140.61 103.00 139.97 C 95.72 138.97 90.58 132.60 88.16 126.07 C 87.74 126.18 86.91 126.39 86.49 126.49 C 85.17 131.49 89.75 134.75 92.08 138.51 C 84.52 139.35 75.58 137.47 71.26 130.64 C 69.47 126.65 67.10 122.43 67.79 117.90 C 68.23 114.78 71.58 113.98 74.12 113.23 C 80.94 111.11 87.87 114.21 93.98 117.05 C 99.65 119.56 104.07 124.79 110.52 125.37 C 110.59 125.00 110.74 124.26 110.82 123.89 C 103.19 121.22 97.93 114.62 90.73 111.22 C 80.71 107.01 69.68 110.25 60.18 114.28 C 56.57 114.50 52.64 114.74 49.52 112.56 C 47.70 111.25 45.27 109.59 45.55 107.03 C 45.98 102.51 49.11 98.13 53.51 96.75 Z" />
<path fill="#ffd200" opacity="1.00" d=" M 53.03 117.61 C 56.81 117.46 60.55 116.86 64.32 116.57 C 64.52 122.36 66.40 128.01 69.53 132.87 C 66.44 132.55 63.22 132.18 60.50 130.57 C 55.97 127.95 53.05 122.84 53.03 117.61 Z" />
<path fill="#ffd200" opacity="1.00" d=" M 114.94 143.96 C 116.65 143.15 118.37 142.38 120.11 141.63 C 120.73 143.46 121.36 145.28 121.93 147.13 C 119.49 146.33 117.17 145.21 114.94 143.96 Z" />
</g>
<g id="#e9072bff">
<path fill="#e9072b" opacity="1.00" d=" M 178.60 54.66 C 180.43 54.31 182.26 53.94 184.09 53.58 C 183.68 57.68 181.78 61.42 181.20 65.48 C 184.46 67.55 187.67 69.67 190.96 71.67 C 191.55 71.54 192.72 71.26 193.31 71.12 C 195.78 76.57 197.63 82.37 197.85 88.39 C 197.19 88.51 195.88 88.75 195.22 88.88 C 192.53 92.22 189.29 95.32 187.27 99.09 C 188.31 102.63 191.23 105.34 193.02 108.55 C 193.77 108.51 195.27 108.42 196.02 108.38 C 194.70 116.26 191.52 123.72 187.54 130.60 C 186.09 131.77 185.31 129.94 184.49 129.05 C 180.86 130.77 177.04 132.20 173.69 134.41 C 172.46 138.24 171.90 142.26 171.06 146.19 C 173.02 146.41 174.98 146.61 176.94 146.83 C 173.64 151.78 169.25 156.00 164.00 158.85 C 160.27 156.82 155.87 158.03 151.85 157.70 C 153.55 156.12 155.40 154.67 156.91 152.89 C 159.85 149.07 160.84 144.24 162.91 139.98 C 166.33 136.38 170.46 133.39 173.13 129.10 C 179.75 118.90 184.96 107.33 185.62 95.04 C 186.00 83.91 182.10 73.25 177.83 63.15 C 176.40 60.40 178.13 57.44 178.60 54.66 Z" />
<path fill="#e9072b" opacity="1.00" d=" M 174.25 66.21 C 174.63 66.26 175.37 66.38 175.74 66.44 C 180.76 75.99 183.70 87.04 182.34 97.87 C 181.21 107.58 177.94 117.13 172.18 125.09 C 169.74 128.39 167.56 132.15 163.84 134.17 C 165.80 129.37 170.07 126.05 172.63 121.60 C 179.60 109.55 183.72 94.85 179.88 81.09 C 178.45 75.98 176.96 70.81 174.25 66.21 Z" />
<path fill="#e9072b" opacity="1.00" d=" M 90.80 141.37 C 95.70 140.13 99.80 143.25 104.38 144.25 C 107.61 145.03 109.85 147.70 112.67 149.29 C 117.29 152.36 122.70 153.89 128.14 154.70 C 130.72 157.06 133.39 159.77 137.02 160.31 C 141.83 161.03 146.87 160.37 151.20 158.10 C 149.99 161.07 147.96 163.57 146.15 166.17 C 146.36 166.97 146.57 167.77 146.79 168.57 C 138.85 169.03 130.84 168.63 123.24 166.10 C 123.30 165.58 123.42 164.53 123.48 164.00 C 121.86 160.56 119.47 157.55 117.69 154.20 C 113.97 154.21 110.25 154.38 106.54 154.59 C 106.25 155.26 105.67 156.60 105.38 157.26 C 99.69 152.79 95.40 146.89 90.80 141.37 Z" />
<path fill="#e9072b" opacity="1.00" d=" M 110.00 144.33 C 113.22 144.96 115.75 147.26 118.87 148.20 C 120.70 148.92 122.86 149.17 124.26 150.71 C 119.03 150.26 113.67 148.13 110.00 144.33 Z" />
</g>
</svg>
